<svg width="711" height="264" viewBox="0 0 711 264" fill="none" xmlns="http://www.w3.org/2000/svg">
<path d="M0 263.25V0.75H12.3047V263.25H0ZM18.3593 263.063V0.75H24.6094V263.063H18.3593ZM36.9141 263.063V0.75H42.9687V263.063H36.9141ZM67.578 263.063V0.75H73.6326V263.063H67.578ZM92.1874 263.063V0.75H104.297V263.063H92.1874ZM122.851 263.063V0.75H128.906V263.063H122.851ZM135.156 263.063V0.75H141.211V263.063H135.156ZM147.461 263.063V0.75H153.515V263.063H147.461ZM171.875 263.063V0.75H184.18V263.063H171.875ZM202.539 263.063V0.75H214.844V263.063H202.539ZM227.148 263.063V0.75H239.453V263.063H227.148ZM251.758 263.063V0.75H264.063V263.063H251.758ZM270.117 263.063V0.75H282.422V263.063H270.117ZM300.977 263.063V0.75H319.336V263.063H300.977ZM325.391 263.063V0.75H331.641V263.063H325.391ZM337.695 263.25V0.75H350V263.25H337.695Z" fill="white"/>
<path d="M361 263.5V1H373.305V263.5H361ZM379.359 263.313V1H385.609V263.313H379.359ZM397.914 263.313V1H403.969V263.313H397.914ZM428.578 263.313V1H434.633V263.313H428.578ZM453.187 263.313V1H465.297V263.313H453.187ZM483.851 263.313V1H489.906V263.313H483.851ZM496.156 263.313V1H502.211V263.313H496.156ZM508.461 263.313V1H514.515V263.313H508.461ZM532.875 263.313V1H545.18V263.313H532.875ZM563.539 263.313V1H575.844V263.313H563.539ZM588.148 263.313V1H600.453V263.313H588.148ZM612.758 263.313V1H625.063V263.313H612.758ZM631.117 263.313V1H643.422V263.313H631.117ZM661.977 263.313V1H680.336V263.313H661.977ZM686.391 263.313V1H692.641V263.313H686.391ZM698.695 263.5V1H711V263.5H698.695Z" fill="white"/>
</svg>
