<svg xmlns="http://www.w3.org/2000/svg" fill="none" viewBox="73.5 57.82 362.6 363.58" style="max-height: 500px" width="362.6" height="363.58">
<rect fill="black" height="365" width="365" y="57" x="72"/>
<path fill="url(#paint0_linear_94_41)" d="M125.384 148.921C153.434 109.859 199.25 84.4154 251.01 84.4152C258.839 84.4152 266.533 84.9995 274.049 86.1229L295.173 64.9987C296.252 63.9207 298 63.9207 299.078 64.9987C300.156 66.0768 300.155 67.8243 299.077 68.9023L280.712 87.2678C292.911 89.6423 304.596 93.4531 315.587 98.5145L341.275 73.7036C342.371 72.6445 344.119 72.6754 345.178 73.772C346.237 74.8685 346.207 76.6157 345.111 77.6749L320.882 101.076C346.721 114.195 368.378 134.359 383.323 159.044L400.074 142.293C401.152 141.215 402.899 141.215 403.977 142.293C405.055 143.371 405.055 145.118 403.977 146.197L386.19 163.984C393.094 176.402 398.337 189.869 401.617 204.088L419.457 186.248C420.535 185.17 422.283 185.17 423.361 186.248C424.439 187.326 424.439 189.074 423.361 190.152L402.96 210.552C404.673 219.766 405.571 229.267 405.571 238.977C405.571 241.734 405.498 244.475 405.355 247.197L426.719 225.833C427.798 224.755 429.546 224.755 430.624 225.833C431.702 226.911 431.702 228.659 430.624 229.737L405.376 254.985C405.171 255.19 404.942 255.355 404.698 255.483C396.459 333.083 330.796 393.537 251.01 393.538C234.572 393.537 218.734 390.969 203.874 386.216L175.043 415.047C173.965 416.125 172.216 416.125 171.138 415.047C170.06 413.969 170.06 412.221 171.138 411.143L198.055 384.226C181.545 378.206 166.351 369.45 153.019 358.508L122.012 389.515C120.934 390.593 119.186 390.593 118.108 389.515C117.03 388.437 117.03 386.689 118.108 385.611L148.801 354.918C139.519 346.729 131.228 337.443 124.131 327.262L102.099 349.294C101.122 350.271 99.5376 350.27 98.5605 349.293C97.5837 348.316 97.5835 346.732 98.5605 345.755L121.284 323.031C117.352 316.975 113.831 310.627 110.764 304.026L94.9138 319.336C93.8172 320.395 92.0701 320.364 91.0109 319.268C89.9517 318.171 89.982 316.424 91.0786 315.365L108.389 298.644C100.699 280.285 96.4489 260.127 96.4488 238.976C96.4489 213.75 102.493 189.936 113.211 168.902L93.0701 189.043C91.992 190.121 90.2445 190.12 89.1665 189.042C88.0885 187.964 88.0879 186.217 89.1658 185.139L125.384 148.921ZM251.01 111.617C180.672 111.617 123.652 168.638 123.652 238.976C123.652 309.314 180.672 366.334 251.01 366.335C321.348 366.334 378.369 309.314 378.37 238.977C378.37 168.638 321.348 111.617 251.01 111.617Z"/>
<path style="mix-blend-mode:overlay" fill="url(#paint1_linear_94_41)" d="M125.384 148.921C153.434 109.859 199.25 84.4154 251.01 84.4152C258.839 84.4152 266.533 84.9995 274.049 86.1229L295.173 64.9987C296.252 63.9207 298 63.9207 299.078 64.9987C300.156 66.0768 300.155 67.8243 299.077 68.9023L280.712 87.2678C292.911 89.6423 304.596 93.4531 315.587 98.5145L341.275 73.7036C342.371 72.6445 344.119 72.6754 345.178 73.772C346.237 74.8685 346.207 76.6157 345.111 77.6749L320.882 101.076C346.721 114.195 368.378 134.359 383.323 159.044L400.074 142.293C401.152 141.215 402.899 141.215 403.977 142.293C405.055 143.371 405.055 145.118 403.977 146.197L386.19 163.984C393.094 176.402 398.337 189.869 401.617 204.088L419.457 186.248C420.535 185.17 422.283 185.17 423.361 186.248C424.439 187.326 424.439 189.074 423.361 190.152L402.96 210.552C404.673 219.766 405.571 229.267 405.571 238.977C405.571 241.734 405.498 244.475 405.355 247.197L426.719 225.833C427.798 224.755 429.546 224.755 430.624 225.833C431.702 226.911 431.702 228.659 430.624 229.737L405.376 254.985C405.171 255.19 404.942 255.355 404.698 255.483C396.459 333.083 330.796 393.537 251.01 393.538C234.572 393.537 218.734 390.969 203.874 386.216L175.043 415.047C173.965 416.125 172.216 416.125 171.138 415.047C170.06 413.969 170.06 412.221 171.138 411.143L198.055 384.226C181.545 378.206 166.351 369.45 153.019 358.508L122.012 389.515C120.934 390.593 119.186 390.593 118.108 389.515C117.03 388.437 117.03 386.689 118.108 385.611L148.801 354.918C139.519 346.729 131.228 337.443 124.131 327.262L102.099 349.294C101.122 350.271 99.5376 350.27 98.5605 349.293C97.5837 348.316 97.5835 346.732 98.5605 345.755L121.284 323.031C117.352 316.975 113.831 310.627 110.764 304.026L94.9138 319.336C93.8172 320.395 92.0701 320.364 91.0109 319.268C89.9517 318.171 89.982 316.424 91.0786 315.365L108.389 298.644C100.699 280.285 96.4489 260.127 96.4488 238.976C96.4489 213.75 102.493 189.936 113.211 168.902L93.0701 189.043C91.992 190.121 90.2445 190.12 89.1665 189.042C88.0885 187.964 88.0879 186.217 89.1658 185.139L125.384 148.921ZM251.01 111.617C180.672 111.617 123.652 168.638 123.652 238.976C123.652 309.314 180.672 366.334 251.01 366.335C321.348 366.334 378.369 309.314 378.37 238.977C378.37 168.638 321.348 111.617 251.01 111.617Z"/>
<path style="mix-blend-mode:color" fill="#C1A875" d="M125.384 148.921C153.434 109.859 199.25 84.4154 251.01 84.4152C258.839 84.4152 266.533 84.9995 274.049 86.1229L295.173 64.9987C296.252 63.9207 298 63.9207 299.078 64.9987C300.156 66.0768 300.155 67.8243 299.077 68.9023L280.712 87.2678C292.911 89.6423 304.596 93.4531 315.587 98.5145L341.275 73.7036C342.371 72.6445 344.119 72.6754 345.178 73.772C346.237 74.8685 346.207 76.6157 345.111 77.6749L320.882 101.076C346.721 114.195 368.378 134.359 383.323 159.044L400.074 142.293C401.152 141.215 402.899 141.215 403.977 142.293C405.055 143.371 405.055 145.118 403.977 146.197L386.19 163.984C393.094 176.402 398.337 189.869 401.617 204.088L419.457 186.248C420.535 185.17 422.283 185.17 423.361 186.248C424.439 187.326 424.439 189.074 423.361 190.152L402.96 210.552C404.673 219.766 405.571 229.267 405.571 238.977C405.571 241.734 405.498 244.475 405.355 247.197L426.719 225.833C427.798 224.755 429.546 224.755 430.624 225.833C431.702 226.911 431.702 228.659 430.624 229.737L405.376 254.985C405.171 255.19 404.942 255.355 404.698 255.483C396.459 333.083 330.796 393.537 251.01 393.538C234.572 393.537 218.734 390.969 203.874 386.216L175.043 415.047C173.965 416.125 172.216 416.125 171.138 415.047C170.06 413.969 170.06 412.221 171.138 411.143L198.055 384.226C181.545 378.206 166.351 369.45 153.019 358.508L122.012 389.515C120.934 390.593 119.186 390.593 118.108 389.515C117.03 388.437 117.03 386.689 118.108 385.611L148.801 354.918C139.519 346.729 131.228 337.443 124.131 327.262L102.099 349.294C101.122 350.271 99.5376 350.27 98.5605 349.293C97.5837 348.316 97.5835 346.732 98.5605 345.755L121.284 323.031C117.352 316.975 113.831 310.627 110.764 304.026L94.9138 319.336C93.8172 320.395 92.0701 320.364 91.0109 319.268C89.9517 318.171 89.982 316.424 91.0786 315.365L108.389 298.644C100.699 280.285 96.4489 260.127 96.4488 238.976C96.4489 213.75 102.493 189.936 113.211 168.902L93.0701 189.043C91.992 190.121 90.2445 190.12 89.1665 189.042C88.0885 187.964 88.0879 186.217 89.1658 185.139L125.384 148.921ZM251.01 111.617C180.672 111.617 123.652 168.638 123.652 238.976C123.652 309.314 180.672 366.334 251.01 366.335C321.348 366.334 378.369 309.314 378.37 238.977C378.37 168.638 321.348 111.617 251.01 111.617Z"/>
<path fill="url(#paint2_linear_94_41)" d="M197.982 228.348C219.8 228.111 237.68 245.607 237.917 267.425C238.027 277.543 234.321 286.814 228.14 293.871L256.15 293.567C258.359 293.543 260.169 295.315 260.193 297.524L260.249 302.693C260.273 304.902 258.502 306.712 256.293 306.736L198.839 307.36C177.021 307.597 159.142 290.101 158.905 268.282C158.669 246.464 176.164 228.585 197.982 228.348ZM198.554 281.023C193.705 281.075 189.818 285.048 189.87 289.897C189.923 294.745 193.896 298.633 198.744 298.58C203.593 298.527 207.481 294.555 207.429 289.706C207.376 284.858 203.402 280.97 198.554 281.023ZM317.949 183.146C326.907 183.049 331.434 187.389 331.529 196.168L332.315 268.596C332.434 279.569 330.242 283.983 319.044 284.105L247.379 284.883C256.003 254.059 242.304 230.062 222.076 223.697L221.767 195.165C221.695 188.581 223.888 184.167 232.845 184.07L317.949 183.146ZM260.007 280.356L277.565 280.165L277.422 266.997L259.864 267.187L260.007 280.356ZM281.954 280.117L299.513 279.927L299.37 266.759L281.811 266.949L281.954 280.117ZM303.902 279.879L321.46 279.689L321.318 266.52L303.759 266.711L303.902 279.879ZM176.368 259.313C171.52 259.366 167.632 263.339 167.684 268.187C167.737 273.036 171.71 276.924 176.559 276.871C181.407 276.819 185.295 272.845 185.243 267.996C185.19 263.148 181.217 259.261 176.368 259.313ZM220.263 258.836C215.415 258.889 211.527 262.862 211.58 267.711C211.632 272.559 215.605 276.447 220.454 276.394C225.302 276.341 229.19 272.368 229.137 267.52C229.085 262.672 225.112 258.784 220.263 258.836ZM263.97 214.699C263.293 214.334 262.474 214.837 262.495 215.606L263.539 253.311C263.56 254.08 264.407 254.538 265.063 254.135L297.194 234.378C297.85 233.975 297.823 233.012 297.146 232.646L263.97 214.699ZM198.077 237.127C193.229 237.18 189.341 241.153 189.394 246.001C189.446 250.849 193.419 254.738 198.268 254.685C203.116 254.633 207.005 250.659 206.952 245.81C206.899 240.962 202.925 237.074 198.077 237.127ZM228.47 206.068L246.028 205.877L245.885 192.708L228.327 192.898L228.47 206.068ZM254.808 205.782L272.365 205.591L272.222 192.422L254.665 192.613L254.808 205.782ZM281.144 205.496L298.703 205.305L298.56 192.136L281.001 192.327L281.144 205.496ZM307.481 205.21L325.04 205.019L324.897 191.85L307.338 192.041L307.481 205.21Z"/>
<path style="mix-blend-mode:overlay" fill="url(#paint3_linear_94_41)" d="M197.982 228.348C219.8 228.111 237.68 245.607 237.917 267.425C238.027 277.543 234.321 286.814 228.14 293.871L256.15 293.567C258.359 293.543 260.169 295.315 260.193 297.524L260.249 302.693C260.273 304.902 258.502 306.712 256.293 306.736L198.839 307.36C177.021 307.597 159.142 290.101 158.905 268.282C158.669 246.464 176.164 228.585 197.982 228.348ZM198.554 281.023C193.705 281.075 189.818 285.048 189.87 289.897C189.923 294.745 193.896 298.633 198.744 298.58C203.593 298.527 207.481 294.555 207.429 289.706C207.376 284.858 203.402 280.97 198.554 281.023ZM317.949 183.146C326.907 183.049 331.434 187.389 331.529 196.168L332.315 268.596C332.434 279.569 330.242 283.983 319.044 284.105L247.379 284.883C256.003 254.059 242.304 230.062 222.076 223.697L221.767 195.165C221.695 188.581 223.888 184.167 232.845 184.07L317.949 183.146ZM260.007 280.356L277.565 280.165L277.422 266.997L259.864 267.187L260.007 280.356ZM281.954 280.117L299.513 279.927L299.37 266.759L281.811 266.949L281.954 280.117ZM303.902 279.879L321.46 279.689L321.318 266.52L303.759 266.711L303.902 279.879ZM176.368 259.313C171.52 259.366 167.632 263.339 167.684 268.187C167.737 273.036 171.71 276.924 176.559 276.871C181.407 276.819 185.295 272.845 185.243 267.996C185.19 263.148 181.217 259.261 176.368 259.313ZM220.263 258.836C215.415 258.889 211.527 262.862 211.58 267.711C211.632 272.559 215.605 276.447 220.454 276.394C225.302 276.341 229.19 272.368 229.137 267.52C229.085 262.672 225.112 258.784 220.263 258.836ZM263.97 214.699C263.293 214.334 262.474 214.837 262.495 215.606L263.539 253.311C263.56 254.08 264.407 254.538 265.063 254.135L297.194 234.378C297.85 233.975 297.823 233.012 297.146 232.646L263.97 214.699ZM198.077 237.127C193.229 237.18 189.341 241.153 189.394 246.001C189.446 250.849 193.419 254.738 198.268 254.685C203.116 254.633 207.005 250.659 206.952 245.81C206.899 240.962 202.925 237.074 198.077 237.127ZM228.47 206.068L246.028 205.877L245.885 192.708L228.327 192.898L228.47 206.068ZM254.808 205.782L272.365 205.591L272.222 192.422L254.665 192.613L254.808 205.782ZM281.144 205.496L298.703 205.305L298.56 192.136L281.001 192.327L281.144 205.496ZM307.481 205.21L325.04 205.019L324.897 191.85L307.338 192.041L307.481 205.21Z"/>
<path style="mix-blend-mode:color" fill="#C1A875" d="M197.982 228.348C219.8 228.111 237.68 245.607 237.917 267.425C238.027 277.543 234.321 286.814 228.14 293.871L256.15 293.567C258.359 293.543 260.169 295.315 260.193 297.524L260.249 302.693C260.273 304.902 258.502 306.712 256.293 306.736L198.839 307.36C177.021 307.597 159.142 290.101 158.905 268.282C158.669 246.464 176.164 228.585 197.982 228.348ZM198.554 281.023C193.705 281.075 189.818 285.048 189.87 289.897C189.923 294.745 193.896 298.633 198.744 298.58C203.593 298.527 207.481 294.555 207.429 289.706C207.376 284.858 203.402 280.97 198.554 281.023ZM317.949 183.146C326.907 183.049 331.434 187.389 331.529 196.168L332.315 268.596C332.434 279.569 330.242 283.983 319.044 284.105L247.379 284.883C256.003 254.059 242.304 230.062 222.076 223.697L221.767 195.165C221.695 188.581 223.888 184.167 232.845 184.07L317.949 183.146ZM260.007 280.356L277.565 280.165L277.422 266.997L259.864 267.187L260.007 280.356ZM281.954 280.117L299.513 279.927L299.37 266.759L281.811 266.949L281.954 280.117ZM303.902 279.879L321.46 279.689L321.318 266.52L303.759 266.711L303.902 279.879ZM176.368 259.313C171.52 259.366 167.632 263.339 167.684 268.187C167.737 273.036 171.71 276.924 176.559 276.871C181.407 276.819 185.295 272.845 185.243 267.996C185.19 263.148 181.217 259.261 176.368 259.313ZM220.263 258.836C215.415 258.889 211.527 262.862 211.58 267.711C211.632 272.559 215.605 276.447 220.454 276.394C225.302 276.341 229.19 272.368 229.137 267.52C229.085 262.672 225.112 258.784 220.263 258.836ZM263.97 214.699C263.293 214.334 262.474 214.837 262.495 215.606L263.539 253.311C263.56 254.08 264.407 254.538 265.063 254.135L297.194 234.378C297.85 233.975 297.823 233.012 297.146 232.646L263.97 214.699ZM198.077 237.127C193.229 237.18 189.341 241.153 189.394 246.001C189.446 250.849 193.419 254.738 198.268 254.685C203.116 254.633 207.005 250.659 206.952 245.81C206.899 240.962 202.925 237.074 198.077 237.127ZM228.47 206.068L246.028 205.877L245.885 192.708L228.327 192.898L228.47 206.068ZM254.808 205.782L272.365 205.591L272.222 192.422L254.665 192.613L254.808 205.782ZM281.144 205.496L298.703 205.305L298.56 192.136L281.001 192.327L281.144 205.496ZM307.481 205.21L325.04 205.019L324.897 191.85L307.338 192.041L307.481 205.21Z"/>
<defs>
<linearGradient gradientUnits="userSpaceOnUse" y2="210.218" x2="401.884" y1="277.752" x1="113.587" id="paint0_linear_94_41">
<stop stop-color="#576265"/>
<stop stop-color="#9EA1A1" offset="0.172016"/>
<stop stop-color="#848B8A" offset="0.45741"/>
<stop stop-color="#576265" offset="0.553567"/>
<stop stop-color="#576265" offset="0.823421"/>
<stop stop-color="#757A7B" offset="0.925155"/>
<stop stop-color="#576265" offset="1"/>
</linearGradient>
<linearGradient gradientUnits="userSpaceOnUse" y2="78.0699" x2="158.192" y1="238.976" x1="219.849" id="paint1_linear_94_41">
<stop stop-opacity="0" stop-color="white"/>
<stop stop-color="white" offset="1"/>
</linearGradient>
<linearGradient gradientUnits="userSpaceOnUse" y2="209.159" x2="321.68" y1="261.648" x1="168.447" id="paint2_linear_94_41">
<stop stop-color="#576265"/>
<stop stop-color="#9EA1A1" offset="0.172016"/>
<stop stop-color="#848B8A" offset="0.45741"/>
<stop stop-color="#576265" offset="0.553567"/>
<stop stop-color="#576265" offset="0.823421"/>
<stop stop-color="#757A7B" offset="0.925155"/>
<stop stop-color="#576265" offset="1"/>
</linearGradient>
<linearGradient gradientUnits="userSpaceOnUse" y2="177.457" x2="208.58" y1="245.584" x1="227.882" id="paint3_linear_94_41">
<stop stop-opacity="0" stop-color="white"/>
<stop stop-color="white" offset="1"/>
</linearGradient>
</defs>
</svg>